<svg width="22" height="22" viewBox="0 0 22 20" fill="none" xmlns="http://www.w3.org/2000/svg">
<path d="M11 0C10.5877 -6.5189e-09 10.1794 0.0861673 9.79848 0.253582C9.41755 0.420997 9.07144 0.666381 8.77989 0.975724C8.48834 1.28507 8.25707 1.65231 8.09928 2.05648C7.9415 2.46066 7.86029 2.89385 7.86029 3.33133C7.86029 3.76881 7.9415 4.202 8.09928 4.60617C8.25707 5.01035 8.48834 5.37759 8.77989 5.68693C9.07144 5.99628 9.41755 6.24166 9.79848 6.40908C10.1794 6.57649 10.5877 6.66266 11 6.66266C11.8327 6.66266 12.6313 6.31168 13.2201 5.68693C13.8089 5.06219 14.1397 4.21485 14.1397 3.33133C14.1397 2.44781 13.8089 1.60047 13.2201 0.975724C12.6313 0.350978 11.8327 0 11 0ZM18.0714 1.664C17.4463 1.664 16.8467 1.92749 16.4047 2.39652C15.9626 2.86555 15.7143 3.50169 15.7143 4.16499C15.7143 4.8283 15.9626 5.46444 16.4047 5.93347C16.8467 6.4025 17.4463 6.66599 18.0714 6.66599C18.6966 6.66599 19.2961 6.4025 19.7382 5.93347C20.1802 5.46444 20.4286 4.8283 20.4286 4.16499C20.4286 3.50169 20.1802 2.86555 19.7382 2.39652C19.2961 1.92749 18.6966 1.664 18.0714 1.664ZM3.92857 1.664C3.30342 1.664 2.70387 1.92749 2.26182 2.39652C1.81977 2.86555 1.57143 3.50169 1.57143 4.16499C1.57143 4.8283 1.81977 5.46444 2.26182 5.93347C2.70387 6.4025 3.30342 6.66599 3.92857 6.66599C4.55372 6.66599 5.15327 6.4025 5.59532 5.93347C6.03737 5.46444 6.28571 4.8283 6.28571 4.16499C6.28571 3.50169 6.03737 2.86555 5.59532 2.39652C5.15327 1.92749 4.55372 1.664 3.92857 1.664ZM6.28571 9.98899C6.28862 9.54881 6.45546 9.12771 6.74985 8.81754C7.04423 8.50738 7.44227 8.33331 7.85714 8.33332H14.1429C14.5596 8.33332 14.9593 8.50899 15.254 8.82168C15.5487 9.13436 15.7143 9.55845 15.7143 10.0007V15.0027C15.7142 15.5274 15.6368 16.0489 15.4849 16.5483C15.1369 17.6799 14.4201 18.6428 13.4632 19.2642C12.5064 19.8855 11.372 20.1246 10.264 19.9384C9.15593 19.7522 8.14673 19.153 7.41759 18.2484C6.68844 17.3438 6.28713 16.193 6.28571 15.0027V9.98899ZM4.71429 10.0007C4.71429 9.39208 4.86671 8.82352 5.13543 8.33332H1.57143C1.15466 8.33332 0.754961 8.50899 0.460261 8.82168C0.165561 9.13436 2.17506e-07 9.55845 2.17506e-07 10.0007V14.169C-0.000213789 14.8514 0.157498 15.5235 0.459286 16.1262C0.761074 16.7288 1.19771 17.2437 1.73084 17.6254C2.26397 18.0072 2.87729 18.2443 3.51695 18.3158C4.1566 18.3873 4.80302 18.291 5.39943 18.0355C4.94714 17.0961 4.71228 16.0559 4.71429 15.001V10.0007ZM17.2857 10.0007V15.0027C17.2857 16.0948 17.039 17.1252 16.6006 18.0355C17.197 18.291 17.8434 18.3873 18.4831 18.3158C19.1227 18.2443 19.736 18.0072 20.2692 17.6254C20.8023 17.2437 21.2389 16.7288 21.5407 16.1262C21.8425 15.5235 22.0002 14.8514 22 14.169V10.0007C22 9.55845 21.8344 9.13436 21.5397 8.82168C21.245 8.50899 20.8453 8.33332 20.4286 8.33332H16.8646C17.1317 8.82352 17.2857 9.39208 17.2857 10.0007Z" fill="#F8F8F8"/>
</svg>
