<svg width="22" height="22" viewBox="0 0 20 20" fill="none" xmlns="http://www.w3.org/2000/svg">
<path d="M3.68421 9L9.47368 0L15.2632 9H3.68421ZM15.2632 20C13.9474 20 12.8288 19.5623 11.9074 18.687C10.986 17.8117 10.5256 16.7493 10.5263 15.5C10.5263 14.25 10.987 13.1873 11.9084 12.312C12.8298 11.4367 13.9481 10.9993 15.2632 11C16.5789 11 17.6975 11.4377 18.6189 12.313C19.5404 13.1883 20.0007 14.2507 20 15.5C20 16.75 19.5393 17.8127 18.6179 18.688C17.6965 19.5633 16.5782 20.0007 15.2632 20ZM0 19.5V11.5H8.42105V19.5H0Z" fill="white"/>
</svg>
