<svg width="22" height="22" viewBox="0 0 20 20" fill="none" xmlns="http://www.w3.org/2000/svg">
<path fill-rule="evenodd" clip-rule="evenodd" d="M13.369 0.622005C13.7674 0.223735 14.3077 0 14.871 0C15.4343 0 15.9746 0.223735 16.373 0.622005L19.378 3.62701C19.7763 4.0254 20 4.56566 20 5.12898C20 5.69231 19.7763 6.23257 19.378 6.63096L16.373 9.63596C15.9746 10.0342 15.4343 10.258 14.871 10.258C14.3077 10.258 13.7674 10.0342 13.369 9.63596L10.364 6.63096C9.96577 6.23257 9.74203 5.69231 9.74203 5.12898C9.74203 4.56566 9.96577 4.0254 10.364 3.62701L13.369 0.622005ZM6.37329 0.880123C6.93673 0.880123 7.47708 1.10395 7.87549 1.50235C8.2739 1.90076 8.49772 2.44112 8.49772 3.00455V7.25342C8.49772 7.81685 8.2739 8.35721 7.87549 8.75561C7.47708 9.15402 6.93673 9.37785 6.37329 9.37785H2.12443C1.561 9.37785 1.02064 9.15402 0.622231 8.75561C0.223823 8.35721 0 7.81685 0 7.25342V3.00455C0 2.44112 0.223823 1.90076 0.622231 1.50235C1.02064 1.10395 1.561 0.880123 2.12443 0.880123H6.37329ZM19.1199 13.6267C19.1199 13.0633 18.8961 12.5229 18.4976 12.1245C18.0992 11.7261 17.5589 11.5023 16.9954 11.5023H12.7466C12.1832 11.5023 11.6428 11.7261 11.2444 12.1245C10.846 12.5229 10.6222 13.0633 10.6222 13.6267V17.8756C10.6222 18.439 10.846 18.9794 11.2444 19.3778C11.6428 19.7762 12.1832 20 12.7466 20H16.9954C17.5589 20 18.0992 19.7762 18.4976 19.3778C18.8961 18.9794 19.1199 18.439 19.1199 17.8756V13.6267ZM6.37329 11.5023C6.93673 11.5023 7.47708 11.7261 7.87549 12.1245C8.2739 12.5229 8.49772 13.0633 8.49772 13.6267V17.8756C8.49772 18.439 8.2739 18.9794 7.87549 19.3778C7.47708 19.7762 6.93673 20 6.37329 20H2.12443C1.561 20 1.02064 19.7762 0.622231 19.3778C0.223823 18.9794 0 18.439 0 17.8756V13.6267C0 13.0633 0.223823 12.5229 0.622231 12.1245C1.02064 11.7261 1.561 11.5023 2.12443 11.5023H6.37329Z" fill="white"/>
</svg>
